<mxfile host="65bd71144e">
    <diagram id="6J3doYdA0x-A6wtQt6_E" name="update流程">
        <mxGraphModel dx="821" dy="525" grid="1" gridSize="10" guides="1" tooltips="1" connect="1" arrows="1" fold="1" page="1" pageScale="1" pageWidth="827" pageHeight="1169" background="#F1FAEE" math="0" shadow="0">
            <root>
                <mxCell id="OBo23DJ2p-ArRk93Bu24-0"/>
                <mxCell id="OBo23DJ2p-ArRk93Bu24-1" parent="OBo23DJ2p-ArRk93Bu24-0"/>
                <mxCell id="5t4RcW_4fohQ0lUHVOi2-0" value="" style="rounded=0;whiteSpace=wrap;html=1;sketch=0;strokeColor=#457B9D;fillColor=none;" vertex="1" parent="OBo23DJ2p-ArRk93Bu24-1">
                    <mxGeometry x="20" y="100" width="650" height="330" as="geometry"/>
                </mxCell>
                <mxCell id="fZXRovl45FkW6j2hfLVI-0" value="" style="rounded=0;whiteSpace=wrap;html=1;sketch=0;fontColor=#1D3557;strokeColor=#457B9D;fillColor=#A8DADC;" parent="OBo23DJ2p-ArRk93Bu24-1" vertex="1">
                    <mxGeometry x="60" y="140" width="580" height="230" as="geometry"/>
                </mxCell>
                <mxCell id="fZXRovl45FkW6j2hfLVI-3" value="磁盘" style="text;html=1;strokeColor=none;fillColor=none;align=center;verticalAlign=middle;whiteSpace=wrap;rounded=0;sketch=0;fontColor=#1D3557;" parent="OBo23DJ2p-ArRk93Bu24-1" vertex="1">
                    <mxGeometry x="20" y="330" width="40" height="20" as="geometry"/>
                </mxCell>
                <mxCell id="fZXRovl45FkW6j2hfLVI-4" value="操作系统缓存" style="text;html=1;strokeColor=none;fillColor=none;align=center;verticalAlign=middle;whiteSpace=wrap;rounded=0;sketch=0;fontColor=#1D3557;" parent="OBo23DJ2p-ArRk93Bu24-1" vertex="1">
                    <mxGeometry x="20" y="290" width="40" height="20" as="geometry"/>
                </mxCell>
                <mxCell id="fZXRovl45FkW6j2hfLVI-19" value="应用层" style="text;html=1;align=center;verticalAlign=middle;resizable=0;points=[];autosize=1;strokeColor=none;fontColor=#1D3557;" parent="OBo23DJ2p-ArRk93Bu24-1" vertex="1">
                    <mxGeometry x="15" y="180" width="50" height="20" as="geometry"/>
                </mxCell>
                <mxCell id="fZXRovl45FkW6j2hfLVI-20" value="" style="endArrow=classic;html=1;fontColor=#1D3557;strokeColor=#457B9D;fillColor=#A8DADC;entryX=0.5;entryY=0;entryDx=0;entryDy=0;labelBackgroundColor=#F1FAEE;" parent="OBo23DJ2p-ArRk93Bu24-1" target="fZXRovl45FkW6j2hfLVI-22" edge="1">
                    <mxGeometry width="50" height="50" relative="1" as="geometry">
                        <mxPoint x="135" y="80" as="sourcePoint"/>
                        <mxPoint x="175" y="170" as="targetPoint"/>
                    </mxGeometry>
                </mxCell>
                <mxCell id="fZXRovl45FkW6j2hfLVI-25" style="edgeStyle=orthogonalEdgeStyle;curved=0;rounded=1;sketch=0;orthogonalLoop=1;jettySize=auto;html=1;entryX=0.5;entryY=1;entryDx=0;entryDy=0;fontColor=#1D3557;strokeColor=#457B9D;fillColor=#A8DADC;labelBackgroundColor=#F1FAEE;" parent="OBo23DJ2p-ArRk93Bu24-1" source="fZXRovl45FkW6j2hfLVI-21" target="fZXRovl45FkW6j2hfLVI-24" edge="1">
                    <mxGeometry relative="1" as="geometry">
                        <Array as="points">
                            <mxPoint x="235" y="290"/>
                            <mxPoint x="235" y="290"/>
                        </Array>
                    </mxGeometry>
                </mxCell>
                <mxCell id="fZXRovl45FkW6j2hfLVI-21" value="doc" style="rounded=0;whiteSpace=wrap;html=1;sketch=0;fontColor=#1D3557;strokeColor=#457B9D;fillColor=#A8DADC;" parent="OBo23DJ2p-ArRk93Bu24-1" vertex="1">
                    <mxGeometry x="100" y="300" width="510" height="40" as="geometry"/>
                </mxCell>
                <mxCell id="fZXRovl45FkW6j2hfLVI-27" style="edgeStyle=orthogonalEdgeStyle;curved=0;rounded=1;sketch=0;orthogonalLoop=1;jettySize=auto;html=1;fontColor=#1D3557;strokeColor=#457B9D;fillColor=#A8DADC;labelBackgroundColor=#F1FAEE;" parent="OBo23DJ2p-ArRk93Bu24-1" source="fZXRovl45FkW6j2hfLVI-22" target="fZXRovl45FkW6j2hfLVI-24" edge="1">
                    <mxGeometry relative="1" as="geometry"/>
                </mxCell>
                <mxCell id="fZXRovl45FkW6j2hfLVI-22" value="update" style="rounded=1;whiteSpace=wrap;html=1;sketch=0;fontColor=#1D3557;strokeColor=#457B9D;fillColor=#A8DADC;" parent="OBo23DJ2p-ArRk93Bu24-1" vertex="1">
                    <mxGeometry x="100" y="180" width="70" height="50" as="geometry"/>
                </mxCell>
                <mxCell id="fZXRovl45FkW6j2hfLVI-41" style="edgeStyle=orthogonalEdgeStyle;curved=0;rounded=1;sketch=0;orthogonalLoop=1;jettySize=auto;html=1;entryX=0;entryY=0.389;entryDx=0;entryDy=0;entryPerimeter=0;fontColor=#1D3557;strokeColor=#457B9D;fillColor=#A8DADC;labelBackgroundColor=#F1FAEE;" parent="OBo23DJ2p-ArRk93Bu24-1" source="fZXRovl45FkW6j2hfLVI-24" target="fZXRovl45FkW6j2hfLVI-31" edge="1">
                    <mxGeometry relative="1" as="geometry"/>
                </mxCell>
                <mxCell id="fZXRovl45FkW6j2hfLVI-47" style="edgeStyle=orthogonalEdgeStyle;curved=0;rounded=1;sketch=0;orthogonalLoop=1;jettySize=auto;html=1;fontColor=#1D3557;strokeColor=#457B9D;fillColor=#A8DADC;labelBackgroundColor=#F1FAEE;" parent="OBo23DJ2p-ArRk93Bu24-1" source="fZXRovl45FkW6j2hfLVI-24" edge="1">
                    <mxGeometry relative="1" as="geometry">
                        <mxPoint x="290" y="245" as="targetPoint"/>
                        <Array as="points">
                            <mxPoint x="235" y="260"/>
                            <mxPoint x="290" y="260"/>
                        </Array>
                    </mxGeometry>
                </mxCell>
                <mxCell id="fZXRovl45FkW6j2hfLVI-24" value="合并新文档" style="rounded=1;whiteSpace=wrap;html=1;sketch=0;fontColor=#1D3557;strokeColor=#457B9D;fillColor=#A8DADC;" parent="OBo23DJ2p-ArRk93Bu24-1" vertex="1">
                    <mxGeometry x="200" y="180" width="70" height="50" as="geometry"/>
                </mxCell>
                <mxCell id="fZXRovl45FkW6j2hfLVI-30" value="versionmap" style="rounded=0;whiteSpace=wrap;html=1;sketch=0;fontColor=#1D3557;strokeColor=#457B9D;fillColor=#A8DADC;" parent="OBo23DJ2p-ArRk93Bu24-1" vertex="1">
                    <mxGeometry x="280" y="220" width="70" height="30" as="geometry"/>
                </mxCell>
                <mxCell id="fZXRovl45FkW6j2hfLVI-31" value="" style="rounded=0;whiteSpace=wrap;html=1;sketch=0;fontColor=#1D3557;strokeColor=#457B9D;fillColor=#A8DADC;" parent="OBo23DJ2p-ArRk93Bu24-1" vertex="1">
                    <mxGeometry x="390" y="170" width="210" height="90" as="geometry"/>
                </mxCell>
                <mxCell id="fZXRovl45FkW6j2hfLVI-26" value="version1" style="text;html=1;strokeColor=none;fillColor=none;align=center;verticalAlign=middle;whiteSpace=wrap;rounded=0;sketch=0;fontColor=#1D3557;" parent="OBo23DJ2p-ArRk93Bu24-1" vertex="1">
                    <mxGeometry x="215" y="260" width="40" height="20" as="geometry"/>
                </mxCell>
                <mxCell id="fZXRovl45FkW6j2hfLVI-32" value="" style="endArrow=none;html=1;fontColor=#1D3557;strokeColor=#457B9D;fillColor=#A8DADC;exitX=0;exitY=0.787;exitDx=0;exitDy=0;exitPerimeter=0;labelBackgroundColor=#F1FAEE;" parent="OBo23DJ2p-ArRk93Bu24-1" edge="1">
                    <mxGeometry width="50" height="50" relative="1" as="geometry">
                        <mxPoint x="58.10000000000002" y="282" as="sourcePoint"/>
                        <mxPoint x="640" y="278" as="targetPoint"/>
                    </mxGeometry>
                </mxCell>
                <mxCell id="fZXRovl45FkW6j2hfLVI-43" style="edgeStyle=orthogonalEdgeStyle;curved=0;rounded=1;sketch=0;orthogonalLoop=1;jettySize=auto;html=1;entryX=0;entryY=0.5;entryDx=0;entryDy=0;fontColor=#1D3557;strokeColor=#457B9D;fillColor=#A8DADC;labelBackgroundColor=#F1FAEE;" parent="OBo23DJ2p-ArRk93Bu24-1" source="fZXRovl45FkW6j2hfLVI-37" target="fZXRovl45FkW6j2hfLVI-39" edge="1">
                    <mxGeometry relative="1" as="geometry"/>
                </mxCell>
                <mxCell id="fZXRovl45FkW6j2hfLVI-37" value="版本校验" style="rounded=0;whiteSpace=wrap;html=1;sketch=0;fontColor=#1D3557;strokeColor=#457B9D;fillColor=#A8DADC;" parent="OBo23DJ2p-ArRk93Bu24-1" vertex="1">
                    <mxGeometry x="400" y="190" width="50" height="50" as="geometry"/>
                </mxCell>
                <mxCell id="fZXRovl45FkW6j2hfLVI-38" value="lock" style="text;html=1;strokeColor=none;fillColor=none;align=center;verticalAlign=middle;whiteSpace=wrap;rounded=0;sketch=0;fontColor=#1D3557;" parent="OBo23DJ2p-ArRk93Bu24-1" vertex="1">
                    <mxGeometry x="475" y="150" width="40" height="20" as="geometry"/>
                </mxCell>
                <mxCell id="fZXRovl45FkW6j2hfLVI-40" style="edgeStyle=orthogonalEdgeStyle;curved=0;rounded=1;sketch=0;orthogonalLoop=1;jettySize=auto;html=1;entryX=0.5;entryY=1;entryDx=0;entryDy=0;fontColor=#1D3557;strokeColor=#457B9D;fillColor=#A8DADC;labelBackgroundColor=#F1FAEE;" parent="OBo23DJ2p-ArRk93Bu24-1" source="fZXRovl45FkW6j2hfLVI-39" target="fZXRovl45FkW6j2hfLVI-30" edge="1">
                    <mxGeometry relative="1" as="geometry">
                        <Array as="points">
                            <mxPoint x="510" y="270"/>
                            <mxPoint x="315" y="270"/>
                        </Array>
                    </mxGeometry>
                </mxCell>
                <mxCell id="fZXRovl45FkW6j2hfLVI-46" style="edgeStyle=orthogonalEdgeStyle;curved=0;rounded=1;sketch=0;orthogonalLoop=1;jettySize=auto;html=1;fontColor=#1D3557;strokeColor=#457B9D;fillColor=#A8DADC;labelBackgroundColor=#F1FAEE;" parent="OBo23DJ2p-ArRk93Bu24-1" source="fZXRovl45FkW6j2hfLVI-39" edge="1">
                    <mxGeometry relative="1" as="geometry">
                        <mxPoint x="630" y="260" as="targetPoint"/>
                        <Array as="points">
                            <mxPoint x="630" y="215"/>
                        </Array>
                    </mxGeometry>
                </mxCell>
                <mxCell id="fZXRovl45FkW6j2hfLVI-39" value="index" style="rounded=0;whiteSpace=wrap;html=1;sketch=0;fontColor=#1D3557;strokeColor=#457B9D;fillColor=#A8DADC;" parent="OBo23DJ2p-ArRk93Bu24-1" vertex="1">
                    <mxGeometry x="480" y="190" width="60" height="50" as="geometry"/>
                </mxCell>
                <mxCell id="fZXRovl45FkW6j2hfLVI-45" style="edgeStyle=orthogonalEdgeStyle;curved=0;rounded=1;sketch=0;orthogonalLoop=1;jettySize=auto;html=1;entryX=0;entryY=0.75;entryDx=0;entryDy=0;fontColor=#1D3557;strokeColor=#457B9D;fillColor=#A8DADC;labelBackgroundColor=#F1FAEE;" parent="OBo23DJ2p-ArRk93Bu24-1" source="fZXRovl45FkW6j2hfLVI-30" target="fZXRovl45FkW6j2hfLVI-37" edge="1">
                    <mxGeometry relative="1" as="geometry"/>
                </mxCell>
            </root>
        </mxGraphModel>
    </diagram>
    <diagram id="pS7qLlwQdO-efS36bjm-" name="index流程">
        <mxGraphModel dx="581" dy="525" grid="1" gridSize="10" guides="1" tooltips="1" connect="1" arrows="1" fold="1" page="1" pageScale="1" pageWidth="827" pageHeight="1169" background="#F1FAEE" math="0" shadow="0">
            <root>
                <mxCell id="0"/>
                <mxCell id="1" parent="0"/>
                <mxCell id="2" value="" style="rounded=0;whiteSpace=wrap;html=1;sketch=0;fontColor=#1D3557;strokeColor=#457B9D;fillColor=#A8DADC;" parent="1" vertex="1">
                    <mxGeometry x="60" y="140" width="390" height="230" as="geometry"/>
                </mxCell>
                <mxCell id="4" value="" style="endArrow=none;html=1;fontColor=#1D3557;strokeColor=#457B9D;fillColor=#A8DADC;entryX=1.005;entryY=0.787;entryDx=0;entryDy=0;entryPerimeter=0;exitX=0;exitY=0.787;exitDx=0;exitDy=0;exitPerimeter=0;labelBackgroundColor=#F1FAEE;" parent="1" source="2" target="2" edge="1">
                    <mxGeometry width="50" height="50" relative="1" as="geometry">
                        <mxPoint x="80" y="350" as="sourcePoint"/>
                        <mxPoint x="130" y="300" as="targetPoint"/>
                    </mxGeometry>
                </mxCell>
                <mxCell id="5" value="" style="endArrow=none;html=1;fontColor=#1D3557;strokeColor=#457B9D;fillColor=#A8DADC;exitX=0;exitY=0.787;exitDx=0;exitDy=0;exitPerimeter=0;startArrow=none;labelBackgroundColor=#F1FAEE;" parent="1" edge="1">
                    <mxGeometry width="50" height="50" relative="1" as="geometry">
                        <mxPoint x="320" y="280.74" as="sourcePoint"/>
                        <mxPoint x="452" y="280" as="targetPoint"/>
                    </mxGeometry>
                </mxCell>
                <mxCell id="6" value="磁盘" style="text;html=1;strokeColor=none;fillColor=none;align=center;verticalAlign=middle;whiteSpace=wrap;rounded=0;sketch=0;fontColor=#1D3557;" parent="1" vertex="1">
                    <mxGeometry x="20" y="330" width="40" height="20" as="geometry"/>
                </mxCell>
                <mxCell id="7" value="操作系统缓存" style="text;html=1;strokeColor=none;fillColor=none;align=center;verticalAlign=middle;whiteSpace=wrap;rounded=0;sketch=0;fontColor=#1D3557;" parent="1" vertex="1">
                    <mxGeometry x="20" y="290" width="40" height="20" as="geometry"/>
                </mxCell>
                <mxCell id="21" style="edgeStyle=orthogonalEdgeStyle;curved=0;rounded=1;sketch=0;orthogonalLoop=1;jettySize=auto;html=1;fontColor=#1D3557;strokeColor=#457B9D;fillColor=#A8DADC;labelBackgroundColor=#F1FAEE;" parent="1" source="9" target="14" edge="1">
                    <mxGeometry relative="1" as="geometry"/>
                </mxCell>
                <mxCell id="22" style="edgeStyle=orthogonalEdgeStyle;curved=0;rounded=1;sketch=0;orthogonalLoop=1;jettySize=auto;html=1;entryX=0.5;entryY=0;entryDx=0;entryDy=0;fontColor=#1D3557;strokeColor=#457B9D;fillColor=#A8DADC;dashed=1;labelBackgroundColor=#F1FAEE;" parent="1" source="9" target="11" edge="1">
                    <mxGeometry relative="1" as="geometry"/>
                </mxCell>
                <mxCell id="9" value="lucence" style="rounded=0;whiteSpace=wrap;html=1;sketch=0;fontColor=#1D3557;strokeColor=#457B9D;fillColor=#A8DADC;" parent="1" vertex="1">
                    <mxGeometry x="135" y="170" width="80" height="70" as="geometry"/>
                </mxCell>
                <mxCell id="25" style="edgeStyle=orthogonalEdgeStyle;curved=0;rounded=1;sketch=0;orthogonalLoop=1;jettySize=auto;html=1;fontColor=#1D3557;strokeColor=#457B9D;fillColor=#A8DADC;dashed=1;labelBackgroundColor=#F1FAEE;" parent="1" source="11" target="12" edge="1">
                    <mxGeometry relative="1" as="geometry"/>
                </mxCell>
                <mxCell id="11" value="segment" style="rounded=0;whiteSpace=wrap;html=1;sketch=0;fontColor=#1D3557;strokeColor=#457B9D;fillColor=#A8DADC;" parent="1" vertex="1">
                    <mxGeometry x="150" y="285" width="50" height="30" as="geometry"/>
                </mxCell>
                <mxCell id="12" value="&lt;span&gt;segment&lt;/span&gt;" style="rounded=0;whiteSpace=wrap;html=1;sketch=0;fontColor=#1D3557;strokeColor=#457B9D;fillColor=#A8DADC;" parent="1" vertex="1">
                    <mxGeometry x="150" y="330" width="50" height="30" as="geometry"/>
                </mxCell>
                <mxCell id="16" style="edgeStyle=orthogonalEdgeStyle;curved=0;rounded=1;sketch=0;orthogonalLoop=1;jettySize=auto;html=1;fontColor=#1D3557;strokeColor=#457B9D;fillColor=#A8DADC;labelBackgroundColor=#F1FAEE;" parent="1" source="14" target="15" edge="1">
                    <mxGeometry relative="1" as="geometry"/>
                </mxCell>
                <mxCell id="28" style="edgeStyle=orthogonalEdgeStyle;curved=0;rounded=1;sketch=0;orthogonalLoop=1;jettySize=auto;html=1;fontColor=#1D3557;strokeColor=#457B9D;fillColor=#A8DADC;labelBackgroundColor=#F1FAEE;" parent="1" source="14" edge="1">
                    <mxGeometry relative="1" as="geometry">
                        <mxPoint x="310" y="100" as="targetPoint"/>
                    </mxGeometry>
                </mxCell>
                <mxCell id="14" value="translog" style="rounded=0;whiteSpace=wrap;html=1;sketch=0;fontColor=#1D3557;strokeColor=#457B9D;fillColor=#A8DADC;" parent="1" vertex="1">
                    <mxGeometry x="270" y="170" width="80" height="70" as="geometry"/>
                </mxCell>
                <mxCell id="15" value="translog" style="rounded=0;whiteSpace=wrap;html=1;sketch=0;fontColor=#1D3557;strokeColor=#457B9D;fillColor=#A8DADC;" parent="1" vertex="1">
                    <mxGeometry x="250" y="330" width="120" height="30" as="geometry"/>
                </mxCell>
                <mxCell id="18" value="" style="endArrow=none;html=1;fontColor=#1D3557;strokeColor=#457B9D;fillColor=#A8DADC;entryX=1.005;entryY=0.787;entryDx=0;entryDy=0;entryPerimeter=0;exitX=0;exitY=0.787;exitDx=0;exitDy=0;exitPerimeter=0;labelBackgroundColor=#F1FAEE;" parent="1" edge="1">
                    <mxGeometry width="50" height="50" relative="1" as="geometry">
                        <mxPoint x="58.10000000000002" y="280" as="sourcePoint"/>
                        <mxPoint x="360.20000000000005" y="280.74" as="targetPoint"/>
                    </mxGeometry>
                </mxCell>
                <mxCell id="20" value="flush" style="text;html=1;strokeColor=none;fillColor=none;align=center;verticalAlign=middle;whiteSpace=wrap;rounded=0;sketch=0;fontColor=#1D3557;" parent="1" vertex="1">
                    <mxGeometry x="310" y="260" width="40" height="20" as="geometry"/>
                </mxCell>
                <mxCell id="23" value="refresh" style="text;html=1;strokeColor=none;fillColor=none;align=center;verticalAlign=middle;whiteSpace=wrap;rounded=0;sketch=0;fontColor=#1D3557;" parent="1" vertex="1">
                    <mxGeometry x="200" y="250" width="40" height="20" as="geometry"/>
                </mxCell>
                <mxCell id="24" value="flush" style="text;html=1;strokeColor=none;fillColor=none;align=center;verticalAlign=middle;whiteSpace=wrap;rounded=0;sketch=0;fontColor=#1D3557;" parent="1" vertex="1">
                    <mxGeometry x="200" y="315" width="40" height="20" as="geometry"/>
                </mxCell>
                <mxCell id="26" value="应用层" style="text;html=1;align=center;verticalAlign=middle;resizable=0;points=[];autosize=1;strokeColor=none;fontColor=#1D3557;" parent="1" vertex="1">
                    <mxGeometry x="15" y="180" width="50" height="20" as="geometry"/>
                </mxCell>
                <mxCell id="27" value="" style="endArrow=classic;html=1;fontColor=#1D3557;strokeColor=#457B9D;fillColor=#A8DADC;entryX=0.5;entryY=0;entryDx=0;entryDy=0;labelBackgroundColor=#F1FAEE;" parent="1" target="9" edge="1">
                    <mxGeometry width="50" height="50" relative="1" as="geometry">
                        <mxPoint x="175" y="100" as="sourcePoint"/>
                        <mxPoint x="180" y="60" as="targetPoint"/>
                    </mxGeometry>
                </mxCell>
                <mxCell id="29" value="未命名图层" parent="0" visible="0"/>
                <mxCell id="0-HAtPOh-YH169XD1KVf-32" value="" style="rounded=0;whiteSpace=wrap;html=1;sketch=0;fontColor=#1D3557;strokeColor=#457B9D;fillColor=none;" parent="29" vertex="1">
                    <mxGeometry x="10" y="60" width="490" height="370" as="geometry"/>
                </mxCell>
            </root>
        </mxGraphModel>
    </diagram>
</mxfile>